<?xml version="1.0" standalone="no"?>
<!DOCTYPE svg PUBLIC "-//W3C//DTD SVG 20010904//EN"
 "http://www.w3.org/TR/2001/REC-SVG-20010904/DTD/svg10.dtd">
<svg version="1.0" xmlns="http://www.w3.org/2000/svg"
 width="850.000000pt" height="752.000000pt" viewBox="0 0 850.000000 752.000000"
 preserveAspectRatio="xMidYMid meet">
<metadata>
Created by potrace 1.11, written by Peter Selinger 2001-2013
</metadata>
<g transform="translate(0.000000,752.000000) scale(0.100000,-0.100000)"
fill="#000000" stroke="none">
<path d="M5884 7045 c-98 -17 -240 -67 -291 -103 -21 -14 -67 -43 -102 -63
-83 -49 -209 -164 -269 -245 -78 -105 -132 -181 -132 -186 0 -3 -27 -55 -60
-116 -77 -143 -100 -230 -107 -398 -9 -217 -5 -237 165 -719 175 -496 213
-858 126 -1192 -68 -261 -197 -476 -419 -698 -147 -146 -269 -239 -580 -442
-237 -154 -446 -297 -542 -370 l-37 -28 7 25 c4 14 10 63 13 110 10 148 -28
276 -120 397 -93 123 -228 192 -377 193 -145 0 -253 -45 -348 -145 -79 -84
-96 -128 -96 -255 0 -93 3 -112 27 -162 69 -148 227 -226 371 -184 181 53 256
254 147 394 -30 38 -90 72 -125 71 -31 -1 -28 -3 18 -13 41 -9 103 -71 123
-121 49 -130 -37 -275 -182 -305 -127 -27 -256 45 -316 175 -34 75 -32 190 4
267 109 233 438 290 632 109 138 -129 192 -338 133 -523 -31 -97 -64 -147
-150 -226 -126 -116 -302 -297 -371 -384 -300 -371 -461 -781 -531 -1344 -15
-120 -40 -552 -33 -560 3 -2 145 -3 317 -2 l311 3 -36 50 c-92 128 -171 334
-205 536 -18 107 -21 150 -16 309 13 430 127 696 456 1057 217 239 484 452
1006 801 339 227 395 272 615 487 202 197 260 238 395 281 246 78 483 37 691
-120 221 -166 300 -455 194 -709 -67 -161 -200 -274 -367 -313 -172 -40 -381
37 -468 173 -107 166 -91 361 41 489 178 172 494 60 494 -176 0 -86 -62 -182
-136 -210 -42 -17 -115 -11 -161 11 -110 53 -112 229 -4 273 60 23 129 -4 152
-59 7 -18 8 -18 8 -2 1 10 -11 31 -27 46 -62 62 -171 42 -212 -40 -45 -87 -8
-188 84 -234 63 -31 116 -32 181 -1 62 29 97 68 125 143 27 72 21 144 -17 215
-31 57 -65 88 -137 126 -45 24 -62 27 -146 27 -89 0 -99 -2 -158 -34 -74 -40
-121 -89 -161 -170 -84 -165 -52 -361 80 -492 114 -113 249 -166 399 -156 213
15 372 116 463 295 71 138 90 208 90 331 1 119 -16 195 -62 294 -119 255 -421
437 -727 437 -78 0 -219 -24 -284 -49 -28 -11 -50 -17 -50 -15 0 3 17 39 39
82 52 103 96 231 123 355 30 138 32 478 4 632 -43 234 -98 422 -210 714 -112
291 -119 321 -119 501 0 136 3 167 26 253 79 297 272 544 546 703 182 106 397
152 585 125 395 -56 705 -362 757 -746 25 -190 -47 -403 -187 -555 -154 -165
-380 -247 -572 -206 -299 63 -503 347 -441 615 29 128 126 247 246 304 62 29
77 32 163 32 85 0 101 -3 153 -30 151 -76 230 -245 181 -388 -33 -98 -148
-187 -240 -187 -140 0 -256 130 -224 250 36 132 195 175 276 74 14 -18 15 -18
4 4 -28 57 -126 79 -197 45 -45 -21 -89 -82 -98 -134 -20 -116 80 -238 208
-255 77 -11 151 18 217 84 72 72 94 131 88 235 -4 91 -34 154 -105 225 -72 72
-145 105 -248 110 -301 15 -537 -290 -460 -593 27 -107 72 -184 154 -266 210
-210 513 -245 777 -88 81 48 186 149 243 234 l48 72 16 -46 c38 -107 142 -181
251 -181 76 0 129 24 178 78 89 99 67 247 -44 301 -56 27 -100 27 -148 0 -48
-27 -70 -66 -70 -123 0 -36 6 -52 29 -78 25 -28 36 -33 75 -33 35 0 50 5 68
25 20 21 20 22 2 7 -12 -10 -38 -20 -57 -24 -32 -5 -41 -1 -73 31 -34 34 -36
40 -31 82 17 152 227 147 276 -6 16 -49 -8 -125 -51 -167 -70 -68 -159 -81
-247 -37 -63 32 -105 85 -128 163 -15 53 -15 59 8 151 47 185 29 380 -50 554
-113 250 -367 461 -634 527 -108 27 -303 33 -413 14z"/>
</g>
</svg>
